<svg width="142" height="41" viewBox="0 0 142 41" fill="none" xmlns="http://www.w3.org/2000/svg">
<path d="M11.2793 13.7754C10.1764 13.7754 9.18294 13.9668 8.29883 14.3496C7.42383 14.7233 6.67643 15.2702 6.05664 15.9902C5.44596 16.7012 4.97656 17.5625 4.64844 18.5742C4.32031 19.5859 4.15625 20.7253 4.15625 21.9922C4.15625 23.6693 4.41602 25.1276 4.93555 26.3672C5.46419 27.5977 6.24805 28.5501 7.28711 29.2246C8.33529 29.8991 9.64324 30.2363 11.2109 30.2363C12.1042 30.2363 12.9427 30.1634 13.7266 30.0176C14.5195 29.8626 15.2897 29.6712 16.0371 29.4434V31.4668C15.3079 31.7402 14.5423 31.9408 13.7402 32.0684C12.9382 32.2051 11.9857 32.2734 10.8828 32.2734C8.85026 32.2734 7.15039 31.8542 5.7832 31.0156C4.42513 30.168 3.4043 28.974 2.7207 27.4336C2.04622 25.8932 1.70898 24.0749 1.70898 21.9785C1.70898 20.4655 1.91862 19.0846 2.33789 17.8359C2.76628 16.5781 3.38607 15.4935 4.19727 14.582C5.01758 13.6706 6.02018 12.9688 7.20508 12.4766C8.39909 11.9753 9.76628 11.7246 11.3066 11.7246C12.3184 11.7246 13.2936 11.8249 14.2324 12.0254C15.1712 12.2259 16.0189 12.513 16.7754 12.8867L15.8457 14.8555C15.2077 14.5638 14.5059 14.3132 13.7402 14.1035C12.9837 13.8848 12.1634 13.7754 11.2793 13.7754ZM22.3125 32H20.0293V10.7266H22.3125V32ZM40.0312 24.4805C40.0312 25.7109 39.8717 26.8092 39.5527 27.7754C39.2337 28.7415 38.7734 29.5573 38.1719 30.2227C37.5703 30.888 36.8411 31.3984 35.9844 31.7539C35.1367 32.1003 34.1751 32.2734 33.0996 32.2734C32.097 32.2734 31.1764 32.1003 30.3379 31.7539C29.5085 31.3984 28.7884 30.888 28.1777 30.2227C27.5762 29.5573 27.1068 28.7415 26.7695 27.7754C26.4414 26.8092 26.2773 25.7109 26.2773 24.4805C26.2773 22.8398 26.5553 21.4453 27.1113 20.2969C27.6673 19.1393 28.4603 18.2598 29.4902 17.6582C30.5293 17.0475 31.7643 16.7422 33.1953 16.7422C34.5625 16.7422 35.7565 17.0475 36.7773 17.6582C37.8073 18.2689 38.6048 19.153 39.1699 20.3105C39.7441 21.459 40.0312 22.849 40.0312 24.4805ZM28.6289 24.4805C28.6289 25.6836 28.7884 26.7272 29.1074 27.6113C29.4264 28.4954 29.9186 29.179 30.584 29.6621C31.2493 30.1452 32.1061 30.3867 33.1543 30.3867C34.1934 30.3867 35.0456 30.1452 35.7109 29.6621C36.3854 29.179 36.8822 28.4954 37.2012 27.6113C37.5202 26.7272 37.6797 25.6836 37.6797 24.4805C37.6797 23.2865 37.5202 22.2565 37.2012 21.3906C36.8822 20.5156 36.39 19.8411 35.7246 19.3672C35.0592 18.8932 34.1979 18.6562 33.1406 18.6562C31.582 18.6562 30.4382 19.1712 29.709 20.2012C28.9889 21.2311 28.6289 22.6576 28.6289 24.4805ZM56.3281 17.0156V32H54.4688L54.1406 29.8945H54.0176C53.7077 30.4141 53.3066 30.8516 52.8145 31.207C52.3223 31.5625 51.7663 31.8268 51.1465 32C50.5358 32.1823 49.8841 32.2734 49.1914 32.2734C48.0065 32.2734 47.013 32.082 46.2109 31.6992C45.4089 31.3164 44.8027 30.724 44.3926 29.9219C43.9915 29.1198 43.791 28.0898 43.791 26.832V17.0156H46.0879V26.668C46.0879 27.9167 46.3704 28.8509 46.9355 29.4707C47.5007 30.0814 48.362 30.3867 49.5195 30.3867C50.6315 30.3867 51.5156 30.1771 52.1719 29.7578C52.8372 29.3385 53.3158 28.7233 53.6074 27.9121C53.8991 27.0918 54.0449 26.0892 54.0449 24.9043V17.0156H56.3281ZM66.459 32.2734C64.5632 32.2734 63.0592 31.6263 61.9473 30.332C60.8444 29.0378 60.293 27.1146 60.293 24.5625C60.293 21.9831 60.8581 20.0371 61.9883 18.7246C63.1185 17.403 64.6224 16.7422 66.5 16.7422C67.293 16.7422 67.9857 16.847 68.5781 17.0566C69.1706 17.2663 69.681 17.5488 70.1094 17.9043C70.5378 18.2507 70.8978 18.6471 71.1895 19.0938H71.3535C71.3171 18.8112 71.2806 18.4238 71.2441 17.9316C71.2077 17.4395 71.1895 17.0384 71.1895 16.7285V10.7266H73.459V32H71.627L71.2852 29.8672H71.1895C70.9069 30.3138 70.5469 30.7194 70.1094 31.084C69.681 31.4486 69.166 31.7402 68.5645 31.959C67.972 32.1686 67.2702 32.2734 66.459 32.2734ZM66.8145 30.3867C68.4186 30.3867 69.5534 29.931 70.2188 29.0195C70.8841 28.1081 71.2168 26.7546 71.2168 24.959V24.5488C71.2168 22.6439 70.8978 21.181 70.2598 20.1602C69.6309 19.1393 68.4824 18.6289 66.8145 18.6289C65.4199 18.6289 64.3763 19.1667 63.6836 20.2422C62.9909 21.3086 62.6445 22.7669 62.6445 24.6172C62.6445 26.4583 62.9863 27.8802 63.6699 28.8828C64.3626 29.8854 65.4108 30.3867 66.8145 30.3867Z" fill="white"/>
<path d="M85.9824 20.7754H93.9121V31.1387C92.8639 31.485 91.7747 31.763 90.6445 31.9727C89.5143 32.1732 88.2337 32.2734 86.8027 32.2734C84.8158 32.2734 83.1296 31.8815 81.7441 31.0977C80.3587 30.3138 79.306 29.1562 78.5859 27.625C77.8659 26.0938 77.5059 24.2116 77.5059 21.9785C77.5059 19.8822 77.9069 18.0684 78.709 16.5371C79.5202 15.0059 80.7005 13.821 82.25 12.9824C83.8086 12.1439 85.709 11.7246 87.9512 11.7246C89.0085 11.7246 90.0521 11.8385 91.082 12.0664C92.112 12.2943 93.0462 12.5905 93.8848 12.9551L92.4766 16.3457C91.8659 16.0358 91.1686 15.776 90.3848 15.5664C89.6009 15.3568 88.7806 15.252 87.9238 15.252C86.6934 15.252 85.6224 15.5345 84.7109 16.0996C83.8086 16.6647 83.1068 17.4577 82.6055 18.4785C82.1133 19.4902 81.8672 20.6842 81.8672 22.0605C81.8672 23.3639 82.0449 24.5215 82.4004 25.5332C82.7559 26.5358 83.3164 27.3242 84.082 27.8984C84.8477 28.4635 85.8457 28.7461 87.0762 28.7461C87.6777 28.7461 88.1836 28.7188 88.5938 28.6641C89.013 28.6003 89.4049 28.5365 89.7695 28.4727V24.3027H85.9824V20.7754ZM104.617 16.4004C106.668 16.4004 108.24 16.847 109.334 17.7402C110.428 18.6335 110.975 19.9915 110.975 21.8145V32H108.062L107.256 29.9219H107.146C106.709 30.4688 106.262 30.9154 105.807 31.2617C105.351 31.6081 104.827 31.8633 104.234 32.0273C103.642 32.1914 102.922 32.2734 102.074 32.2734C101.172 32.2734 100.361 32.1003 99.6406 31.7539C98.9297 31.4076 98.3691 30.8789 97.959 30.168C97.5488 29.4479 97.3438 28.5365 97.3438 27.4336C97.3438 25.8112 97.9134 24.6172 99.0527 23.8516C100.192 23.0768 101.901 22.6484 104.18 22.5664L106.832 22.4844V21.8145C106.832 21.0124 106.622 20.4245 106.203 20.0508C105.784 19.6771 105.201 19.4902 104.453 19.4902C103.715 19.4902 102.99 19.5951 102.279 19.8047C101.568 20.0143 100.857 20.2786 100.146 20.5977L98.7656 17.7812C99.5768 17.3529 100.484 17.0156 101.486 16.7695C102.498 16.5234 103.542 16.4004 104.617 16.4004ZM106.832 24.918L105.219 24.9727C103.87 25.0091 102.931 25.2507 102.402 25.6973C101.883 26.1439 101.623 26.7318 101.623 27.4609C101.623 28.099 101.81 28.5547 102.184 28.8281C102.557 29.0924 103.045 29.2246 103.646 29.2246C104.54 29.2246 105.292 28.9603 105.902 28.4316C106.522 27.903 106.832 27.151 106.832 26.1758V24.918ZM121.721 28.9512C122.176 28.9512 122.618 28.9056 123.047 28.8145C123.484 28.7233 123.917 28.6094 124.346 28.4727V31.5762C123.899 31.7767 123.343 31.9408 122.678 32.0684C122.021 32.2051 121.301 32.2734 120.518 32.2734C119.606 32.2734 118.786 32.1276 118.057 31.8359C117.337 31.5352 116.767 31.0202 116.348 30.291C115.938 29.5527 115.732 28.5273 115.732 27.2148V19.8457H113.736V18.082L116.033 16.6875L117.236 13.4609H119.902V16.7148H124.182V19.8457H119.902V27.2148C119.902 27.7982 120.066 28.2357 120.395 28.5273C120.732 28.8099 121.174 28.9512 121.721 28.9512ZM133.752 16.4277C135.165 16.4277 136.382 16.7012 137.402 17.248C138.423 17.7858 139.212 18.5697 139.768 19.5996C140.324 20.6296 140.602 21.8874 140.602 23.373V25.3965H130.744C130.79 26.5723 131.141 27.4974 131.797 28.1719C132.462 28.8372 133.383 29.1699 134.559 29.1699C135.534 29.1699 136.427 29.0697 137.238 28.8691C138.049 28.6686 138.883 28.3678 139.74 27.9668V31.1934C138.984 31.5671 138.191 31.8405 137.361 32.0137C136.541 32.1868 135.543 32.2734 134.367 32.2734C132.836 32.2734 131.478 31.9909 130.293 31.4258C129.117 30.8607 128.192 29.9993 127.518 28.8418C126.852 27.6842 126.52 26.2259 126.52 24.4668C126.52 22.6803 126.82 21.1947 127.422 20.0098C128.033 18.8158 128.88 17.9225 129.965 17.3301C131.049 16.7285 132.312 16.4277 133.752 16.4277ZM133.779 19.3945C132.968 19.3945 132.294 19.6543 131.756 20.1738C131.227 20.6934 130.922 21.5091 130.84 22.6211H136.691C136.682 22.0013 136.568 21.4499 136.35 20.9668C136.14 20.4837 135.821 20.1009 135.393 19.8184C134.973 19.5358 134.436 19.3945 133.779 19.3945Z" fill="white"/>
<path d="M125.831 6.63234H122.022L118.413 2.62816L114.809 6.63234H111L117.051 0H119.761L125.831 6.63234Z" fill="white"/>
</svg>
