<svg width="142" height="42" viewBox="0 0 142 42" fill="none" xmlns="http://www.w3.org/2000/svg">
<g clip-path="url(#clip0_556_831)">
<path d="M11.2793 14.2754C10.1764 14.2754 9.18294 14.4668 8.29883 14.8496C7.42383 15.2233 6.67643 15.7702 6.05664 16.4902C5.44596 17.2012 4.97656 18.0625 4.64844 19.0742C4.32031 20.0859 4.15625 21.2253 4.15625 22.4922C4.15625 24.1693 4.41602 25.6276 4.93555 26.8672C5.46419 28.0977 6.24805 29.0501 7.28711 29.7246C8.33529 30.3991 9.64324 30.7363 11.2109 30.7363C12.1042 30.7363 12.9427 30.6634 13.7266 30.5176C14.5195 30.3626 15.2897 30.1712 16.0371 29.9434V31.9668C15.3079 32.2402 14.5423 32.4408 13.7402 32.5684C12.9382 32.7051 11.9857 32.7734 10.8828 32.7734C8.85026 32.7734 7.15039 32.3542 5.7832 31.5156C4.42513 30.668 3.4043 29.474 2.7207 27.9336C2.04622 26.3932 1.70898 24.5749 1.70898 22.4785C1.70898 20.9655 1.91862 19.5846 2.33789 18.3359C2.76628 17.0781 3.38607 15.9935 4.19727 15.082C5.01758 14.1706 6.02018 13.4688 7.20508 12.9766C8.39909 12.4753 9.76628 12.2246 11.3066 12.2246C12.3184 12.2246 13.2936 12.3249 14.2324 12.5254C15.1712 12.7259 16.0189 13.013 16.7754 13.3867L15.8457 15.3555C15.2077 15.0638 14.5059 14.8132 13.7402 14.6035C12.9837 14.3848 12.1634 14.2754 11.2793 14.2754ZM22.3125 32.5H20.0293V11.2266H22.3125V32.5ZM40.0312 24.9805C40.0312 26.2109 39.8717 27.3092 39.5527 28.2754C39.2337 29.2415 38.7734 30.0573 38.1719 30.7227C37.5703 31.388 36.8411 31.8984 35.9844 32.2539C35.1367 32.6003 34.1751 32.7734 33.0996 32.7734C32.097 32.7734 31.1764 32.6003 30.3379 32.2539C29.5085 31.8984 28.7884 31.388 28.1777 30.7227C27.5762 30.0573 27.1068 29.2415 26.7695 28.2754C26.4414 27.3092 26.2773 26.2109 26.2773 24.9805C26.2773 23.3398 26.5553 21.9453 27.1113 20.7969C27.6673 19.6393 28.4603 18.7598 29.4902 18.1582C30.5293 17.5475 31.7643 17.2422 33.1953 17.2422C34.5625 17.2422 35.7565 17.5475 36.7773 18.1582C37.8073 18.7689 38.6048 19.653 39.1699 20.8105C39.7441 21.959 40.0312 23.349 40.0312 24.9805ZM28.6289 24.9805C28.6289 26.1836 28.7884 27.2272 29.1074 28.1113C29.4264 28.9954 29.9186 29.679 30.584 30.1621C31.2493 30.6452 32.1061 30.8867 33.1543 30.8867C34.1934 30.8867 35.0456 30.6452 35.7109 30.1621C36.3854 29.679 36.8822 28.9954 37.2012 28.1113C37.5202 27.2272 37.6797 26.1836 37.6797 24.9805C37.6797 23.7865 37.5202 22.7565 37.2012 21.8906C36.8822 21.0156 36.39 20.3411 35.7246 19.8672C35.0592 19.3932 34.1979 19.1562 33.1406 19.1562C31.582 19.1562 30.4382 19.6712 29.709 20.7012C28.9889 21.7311 28.6289 23.1576 28.6289 24.9805ZM56.3281 17.5156V32.5H54.4688L54.1406 30.3945H54.0176C53.7077 30.9141 53.3066 31.3516 52.8145 31.707C52.3223 32.0625 51.7663 32.3268 51.1465 32.5C50.5358 32.6823 49.8841 32.7734 49.1914 32.7734C48.0065 32.7734 47.013 32.582 46.2109 32.1992C45.4089 31.8164 44.8027 31.224 44.3926 30.4219C43.9915 29.6198 43.791 28.5898 43.791 27.332V17.5156H46.0879V27.168C46.0879 28.4167 46.3704 29.3509 46.9355 29.9707C47.5007 30.5814 48.362 30.8867 49.5195 30.8867C50.6315 30.8867 51.5156 30.6771 52.1719 30.2578C52.8372 29.8385 53.3158 29.2233 53.6074 28.4121C53.8991 27.5918 54.0449 26.5892 54.0449 25.4043V17.5156H56.3281ZM66.459 32.7734C64.5632 32.7734 63.0592 32.1263 61.9473 30.832C60.8444 29.5378 60.293 27.6146 60.293 25.0625C60.293 22.4831 60.8581 20.5371 61.9883 19.2246C63.1185 17.903 64.6224 17.2422 66.5 17.2422C67.293 17.2422 67.9857 17.347 68.5781 17.5566C69.1706 17.7663 69.681 18.0488 70.1094 18.4043C70.5378 18.7507 70.8978 19.1471 71.1895 19.5938H71.3535C71.3171 19.3112 71.2806 18.9238 71.2441 18.4316C71.2077 17.9395 71.1895 17.5384 71.1895 17.2285V11.2266H73.459V32.5H71.627L71.2852 30.3672H71.1895C70.9069 30.8138 70.5469 31.2194 70.1094 31.584C69.681 31.9486 69.166 32.2402 68.5645 32.459C67.972 32.6686 67.2702 32.7734 66.459 32.7734ZM66.8145 30.8867C68.4186 30.8867 69.5534 30.431 70.2188 29.5195C70.8841 28.6081 71.2168 27.2546 71.2168 25.459V25.0488C71.2168 23.1439 70.8978 21.681 70.2598 20.6602C69.6309 19.6393 68.4824 19.1289 66.8145 19.1289C65.4199 19.1289 64.3763 19.6667 63.6836 20.7422C62.9909 21.8086 62.6445 23.2669 62.6445 25.1172C62.6445 26.9583 62.9863 28.3802 63.6699 29.3828C64.3626 30.3854 65.4108 30.8867 66.8145 30.8867Z" fill="#003B4D"/>
<path d="M85.9824 21.2754H93.9121V31.6387C92.8639 31.985 91.7747 32.263 90.6445 32.4727C89.5143 32.6732 88.2337 32.7734 86.8027 32.7734C84.8158 32.7734 83.1296 32.3815 81.7441 31.5977C80.3587 30.8138 79.306 29.6562 78.5859 28.125C77.8659 26.5938 77.5059 24.7116 77.5059 22.4785C77.5059 20.3822 77.9069 18.5684 78.709 17.0371C79.5202 15.5059 80.7005 14.321 82.25 13.4824C83.8086 12.6439 85.709 12.2246 87.9512 12.2246C89.0085 12.2246 90.0521 12.3385 91.082 12.5664C92.112 12.7943 93.0462 13.0905 93.8848 13.4551L92.4766 16.8457C91.8659 16.5358 91.1686 16.276 90.3848 16.0664C89.6009 15.8568 88.7806 15.752 87.9238 15.752C86.6934 15.752 85.6224 16.0345 84.7109 16.5996C83.8086 17.1647 83.1068 17.9577 82.6055 18.9785C82.1133 19.9902 81.8672 21.1842 81.8672 22.5605C81.8672 23.8639 82.0449 25.0215 82.4004 26.0332C82.7559 27.0358 83.3164 27.8242 84.082 28.3984C84.8477 28.9635 85.8457 29.2461 87.0762 29.2461C87.6777 29.2461 88.1836 29.2188 88.5938 29.1641C89.013 29.1003 89.4049 29.0365 89.7695 28.9727V24.8027H85.9824V21.2754ZM104.617 16.9004C106.668 16.9004 108.24 17.347 109.334 18.2402C110.428 19.1335 110.975 20.4915 110.975 22.3145V32.5H108.062L107.256 30.4219H107.146C106.709 30.9688 106.262 31.4154 105.807 31.7617C105.351 32.1081 104.827 32.3633 104.234 32.5273C103.642 32.6914 102.922 32.7734 102.074 32.7734C101.172 32.7734 100.361 32.6003 99.6406 32.2539C98.9297 31.9076 98.3691 31.3789 97.959 30.668C97.5488 29.9479 97.3438 29.0365 97.3438 27.9336C97.3438 26.3112 97.9134 25.1172 99.0527 24.3516C100.192 23.5768 101.901 23.1484 104.18 23.0664L106.832 22.9844V22.3145C106.832 21.5124 106.622 20.9245 106.203 20.5508C105.784 20.1771 105.201 19.9902 104.453 19.9902C103.715 19.9902 102.99 20.0951 102.279 20.3047C101.568 20.5143 100.857 20.7786 100.146 21.0977L98.7656 18.2812C99.5768 17.8529 100.484 17.5156 101.486 17.2695C102.498 17.0234 103.542 16.9004 104.617 16.9004ZM106.832 25.418L105.219 25.4727C103.87 25.5091 102.931 25.7507 102.402 26.1973C101.883 26.6439 101.623 27.2318 101.623 27.9609C101.623 28.599 101.81 29.0547 102.184 29.3281C102.557 29.5924 103.045 29.7246 103.646 29.7246C104.54 29.7246 105.292 29.4603 105.902 28.9316C106.522 28.403 106.832 27.651 106.832 26.6758V25.418ZM121.721 29.4512C122.176 29.4512 122.618 29.4056 123.047 29.3145C123.484 29.2233 123.917 29.1094 124.346 28.9727V32.0762C123.899 32.2767 123.343 32.4408 122.678 32.5684C122.021 32.7051 121.301 32.7734 120.518 32.7734C119.606 32.7734 118.786 32.6276 118.057 32.3359C117.337 32.0352 116.767 31.5202 116.348 30.791C115.938 30.0527 115.732 29.0273 115.732 27.7148V20.3457H113.736V18.582L116.033 17.1875L117.236 13.9609H119.902V17.2148H124.182V20.3457H119.902V27.7148C119.902 28.2982 120.066 28.7357 120.395 29.0273C120.732 29.3099 121.174 29.4512 121.721 29.4512ZM133.752 16.9277C135.165 16.9277 136.382 17.2012 137.402 17.748C138.423 18.2858 139.212 19.0697 139.768 20.0996C140.324 21.1296 140.602 22.3874 140.602 23.873V25.8965H130.744C130.79 27.0723 131.141 27.9974 131.797 28.6719C132.462 29.3372 133.383 29.6699 134.559 29.6699C135.534 29.6699 136.427 29.5697 137.238 29.3691C138.049 29.1686 138.883 28.8678 139.74 28.4668V31.6934C138.984 32.0671 138.191 32.3405 137.361 32.5137C136.541 32.6868 135.543 32.7734 134.367 32.7734C132.836 32.7734 131.478 32.4909 130.293 31.9258C129.117 31.3607 128.192 30.4993 127.518 29.3418C126.852 28.1842 126.52 26.7259 126.52 24.9668C126.52 23.1803 126.82 21.6947 127.422 20.5098C128.033 19.3158 128.88 18.4225 129.965 17.8301C131.049 17.2285 132.312 16.9277 133.752 16.9277ZM133.779 19.8945C132.968 19.8945 132.294 20.1543 131.756 20.6738C131.227 21.1934 130.922 22.0091 130.84 23.1211H136.691C136.682 22.5013 136.568 21.9499 136.35 21.4668C136.14 20.9837 135.821 20.6009 135.393 20.3184C134.973 20.0358 134.436 19.8945 133.779 19.8945Z" fill="#8D2431"/>
<path d="M125.831 7.13234H122.022L118.413 3.12816L114.809 7.13234H111L117.051 0.5H119.761L125.831 7.13234Z" fill="#003B4D"/>
</g>
<defs>
<clipPath id="clip0_556_831">
<rect width="142" height="41" fill="white" transform="translate(0 0.5)"/>
</clipPath>
</defs>
</svg>
